<?xml version="1.0" encoding="utf-8"?>
<svg width="1002.9379272460938" height="1001.2060546875" viewBox="464.391 148.188 1002.94 1001.21" xmlns="http://www.w3.org/2000/svg">
  <path d="M 587.43 329.976 C 593.724 329.852 597.612 349.631 594.695 366.956 C 593.138 376.21 590.565 379.825 582.906 383.526 C 574.864 387.414 572.945 390.34 572.172 399.898 C 571.347 410.096 569.635 412.32 558.351 417.843 C 551.268 421.309 540.077 425.147 533.484 426.37 L 521.5 428.593 L 523.504 418.288 C 524.607 412.621 525.508 406.741 525.508 405.222 C 525.508 403.703 528.617 402.454 532.418 402.448 C 542.515 402.43 558.442 391.418 565.449 379.608 C 569.335 373.059 571.558 363.72 571.566 353.894 C 571.578 337.902 576.693 330.187 587.43 329.976 Z M 710.887 323.484 C 711.63 323.452 712.27 323.45 712.82 323.484 C 716.492 323.709 716.13 325.495 714.914 330.163 C 713.826 334.343 712.918 340.066 712.895 342.878 C 712.864 346.601 709.025 348.432 698.77 349.62 C 688.251 350.839 682.017 353.909 674.141 361.753 C 663.487 372.364 655.883 392.33 658.531 402.737 C 659.576 406.843 657.406 409.315 650.633 411.741 C 636.455 416.82 636.057 416.405 636.289 396.937 C 636.569 373.399 638.578 368.803 651.48 362.187 C 658.754 358.457 663.254 353.273 665.543 345.995 C 669.571 333.189 679.662 327.097 701.168 324.48 C 705.515 323.951 708.658 323.579 710.887 323.484 Z M 1290.168 882.182 C 1295.39 881.916 1296.34 886.105 1296.239 897.155 C 1296.051 917.53 1290.734 928.55 1277.949 935.069 C 1270.62 938.806 1266.271 943.782 1264.286 950.714 C 1260.879 962.599 1245.404 970.53 1225.618 970.53 C 1213.777 970.53 1213.41 970.217 1215.355 961.85 C 1218.271 949.316 1218.401 949.202 1232.395 946.772 C 1240.953 945.286 1249.182 940.705 1257.348 932.878 C 1267.849 922.813 1269.745 918.91 1271.083 904.6 C 1272.385 890.659 1273.829 887.53 1280.098 885.081 C 1284.54 883.346 1287.795 882.303 1290.168 882.182 Z M 1266.109 254.964 C 1266.831 254.996 1267.694 255.192 1268.734 255.495 C 1272.113 256.48 1277.453 258.031 1280.602 258.941 C 1284.927 260.191 1286.324 263.59 1286.324 272.863 C 1286.324 279.95 1289.146 289.82 1293.005 296.234 C 1300.276 308.325 1320.865 320.405 1334.199 320.405 C 1338.734 320.405 1342.462 322.181 1342.484 324.351 C 1342.509 326.52 1343.36 331.492 1344.38 335.398 C 1346.099 341.991 1345.274 342.48 1332.821 342.257 C 1325.444 342.125 1314.837 340.315 1309.246 338.234 C 1301.829 335.472 1297.505 330.833 1293.25 321.066 C 1288.755 310.747 1285.317 307.247 1278.255 305.796 C 1267.318 303.548 1262.594 292.517 1262.594 269.23 C 1262.594 257.843 1262.988 254.827 1266.109 254.964 Z M 1257.688 364.546 C 1263.885 364.359 1273.819 366.664 1284.29 371.292 C 1296.485 376.684 1299.449 379.485 1299.449 385.636 C 1299.449 393.965 1311.889 408.773 1318.886 408.773 C 1325.548 408.773 1330.074 441.284 1325.223 454.276 C 1323.107 459.943 1322.649 459.983 1310.652 455.495 C 1303.187 452.702 1302.146 450.929 1303.594 443.487 C 1307.857 421.587 1287.238 392.504 1264.313 388.085 C 1256.573 386.593 1253.38 384.313 1253.38 380.276 C 1253.38 377.14 1252.542 372.327 1251.516 369.581 C 1250.307 366.343 1252.868 364.692 1257.688 364.546 Z M 705.547 948.456 C 712.373 948.721 718.594 953.36 720.02 960.233 C 725.077 984.62 744.073 999.46 770.234 999.46 C 781.982 999.46 784.172 1000.608 788.375 1008.96 C 791.004 1014.184 792.549 1019.078 791.809 1019.839 C 789.607 1022.101 761.137 1023.692 751.848 1022.073 C 746.476 1021.137 742.224 1017.815 740.527 1013.229 C 737.122 1004.024 725.926 995.776 716.836 995.776 C 711.897 995.776 708.249 992.376 704.145 983.944 C 695.654 966.504 693.487 951.767 699.09 949.557 C 700.763 948.898 702.48 948.544 704.176 948.464 C 704.635 948.442 705.092 948.438 705.547 948.456 Z M 592.887 951.671 C 595.071 951.736 598.053 952.07 602.125 952.565 C 622.92 955.096 636.07 962.486 636.07 971.639 C 636.07 979.827 647.743 992.624 655.211 992.624 C 661.282 992.624 667.562 1019.397 664.809 1033.542 C 662.766 1044.036 662.819 1044.011 650.66 1039.448 C 643.385 1036.717 642.215 1034.544 642.215 1023.76 C 642.215 1000.76 625.286 980.177 602.289 975.214 C 590.172 972.598 587.048 969.138 586.98 958.257 C 586.952 953.765 587.218 951.978 590.957 951.698 C 591.518 951.657 592.159 951.649 592.887 951.671 Z M 1165.746 278.523 C 1176.436 278.622 1185.813 280.312 1185.813 283.011 C 1185.813 289.285 1201.211 301.472 1209.136 301.472 C 1213.672 301.472 1219.287 303.958 1221.614 306.995 C 1228.167 315.556 1234.953 333.006 1234.953 341.304 C 1234.953 347.669 1233.438 348.81 1224.973 348.8 C 1215.975 348.79 1214.234 347.168 1207.313 332.347 C 1196.862 309.967 1186.944 303.18 1163.758 302.53 C 1146.667 302.052 1144.78 301.268 1139.586 292.491 L 1133.953 282.972 L 1146.828 280.187 C 1152.443 278.974 1159.333 278.463 1165.746 278.523 Z M 716.691 219.46 C 724.126 219.401 723.677 231.749 715.543 251.179 C 710.503 263.219 707.459 266.757 702.137 266.757 C 693.819 266.757 679.066 278.052 679.066 284.421 C 679.066 286.942 675.524 290.388 671.191 292.081 C 661.487 295.873 630.887 296.148 628.672 292.464 C 627.781 290.983 628.58 285.609 630.449 280.519 C 633.624 271.877 634.933 271.265 650.238 271.265 C 661.965 271.265 669.053 269.42 675.152 264.777 C 686.434 256.188 697.496 239.148 697.496 230.363 C 697.496 223.397 704.255 219.56 716.691 219.46 Z M 1403.868 868.839 L 1403.868 881.811 C 1403.868 893.33 1403.058 894.788 1396.646 894.788 C 1387.733 894.788 1371.27 905.997 1362.688 917.909 C 1357.988 924.434 1356.307 931.343 1356.422 943.659 C 1356.571 959.553 1356.031 960.762 1346.746 965.311 C 1337.331 969.925 1336.839 969.837 1335.114 963.229 C 1332.744 954.149 1332.734 928.195 1335.094 921.87 C 1336.12 919.124 1338.831 916.878 1341.118 916.878 C 1348.032 916.878 1357.801 903.633 1357.801 894.257 C 1357.801 887.236 1360.165 884.207 1369.458 879.335 C 1375.87 875.973 1386.237 872.236 1392.493 871.03 Z M 1286.973 1002.573 C 1301.141 1002.753 1302.765 1006.279 1298.703 1017.335 C 1295.417 1026.28 1293.928 1027.287 1286.458 1025.6 C 1264.868 1020.728 1236.47 1040.146 1233.051 1062.12 C 1231.477 1072.234 1229.802 1074.317 1221.942 1075.932 C 1208.027 1078.792 1207.313 1078.489 1207.313 1069.741 C 1207.313 1065.289 1210.245 1054.636 1213.833 1046.069 C 1219.112 1033.457 1221.789 1030.495 1227.891 1030.495 C 1235.359 1030.495 1251.02 1017.253 1253.839 1008.557 C 1254.854 1005.431 1261.391 1003.702 1275.074 1002.932 C 1279.765 1002.668 1283.703 1002.531 1286.973 1002.573 Z M 609.441 839.581 C 611.095 839.507 613.669 840.65 618.375 842.956 C 627.708 847.529 628.418 848.913 627.352 860.409 C 626.714 867.277 627.897 877.12 629.977 882.28 C 635.224 895.299 652.269 909.853 665.184 912.343 C 675.029 914.24 675.996 915.384 675.996 925.12 C 675.996 935.142 675.351 935.815 665.731 935.815 C 660.084 935.815 649.491 932.571 642.191 928.604 C 631.569 922.832 628.844 919.607 628.539 912.448 C 628.178 903.978 617.37 891.013 607.988 887.8 C 603.665 886.319 602.198 853.1 606.031 843.507 C 607.055 840.945 607.788 839.655 609.441 839.581 Z M 807.77 252.023 C 812.465 251.9 817.72 252.465 823.352 253.765 C 839.85 257.574 841.079 259.104 835.617 269.011 C 831.503 276.473 829.28 277.241 811.129 277.507 C 786.698 277.865 773.342 286.234 764.531 306.702 C 759.214 319.054 757.587 320.405 748.027 320.405 C 740.549 320.405 737.422 318.979 737.422 315.57 C 737.422 301.054 755.921 272.084 763.324 275.003 C 769.864 277.582 783.435 270.327 786.965 262.366 C 789.832 255.9 797.44 252.293 807.77 252.023 Z M 1120.946 175.234 C 1131.29 175.234 1133.36 176.48 1136.68 184.714 C 1145.62 206.894 1172.462 220.562 1193.839 213.82 C 1203.421 210.798 1204.714 211.235 1210.379 219.41 C 1213.76 224.288 1216.527 228.987 1216.527 229.851 C 1216.527 233.299 1196.365 238.346 1183.051 238.23 C 1171.343 238.128 1167.534 236.505 1160.828 228.761 C 1154.722 221.708 1150.055 219.417 1141.792 219.417 C 1133.01 219.417 1129.379 217.389 1123.433 209.16 C 1117.463 200.895 1109.036 181.682 1109.036 176.339 C 1109.036 175.73 1114.394 175.234 1120.946 175.234 Z M 504.328 809.573 C 509.814 809.668 526.403 817.83 535.07 825.171 C 544.305 832.993 545.78 835.968 544.586 844.331 C 543.448 852.3 545.103 856.274 553.078 864.729 C 563.588 875.872 563.839 879.812 555.762 906.624 C 552.282 918.175 548.557 919.188 538.605 911.288 C 532.396 906.358 532.065 904.731 535.172 894.358 C 541.962 871.688 529.033 844.168 507.234 834.89 C 499.178 831.46 498.356 829.895 499.984 821.089 C 500.995 815.626 502.222 810.66 502.711 810.054 C 502.986 809.712 503.544 809.559 504.328 809.573 Z M 617.168 434.667 C 618.852 434.757 619.856 435.679 620.902 437.378 C 627.155 447.533 624.046 455.849 611.547 462.401 C 604.815 465.93 597.003 472.431 594.187 476.847 C 587.5 487.335 585.147 513.064 590.019 522.421 C 593.34 528.797 592.916 530.387 586.531 535.432 C 576.652 543.239 573.205 542.77 568.887 533.03 C 566.865 528.47 564.385 518.565 563.379 511.018 C 561.711 498.511 562.422 496.459 571.41 487.831 C 578.981 480.564 581.049 476.196 580.316 469.015 C 579.147 457.56 588.228 446.694 605.762 438.569 C 611.713 435.812 615.003 434.551 617.168 434.667 Z M 1185.036 979.999 C 1195.334 979.999 1195.714 980.402 1193.964 989.393 C 1192.959 994.56 1188.458 1004.499 1183.961 1011.483 C 1176.811 1022.586 1174.327 1024.182 1164.18 1024.182 C 1155.057 1024.182 1150.92 1026.207 1144.824 1033.651 C 1138.125 1041.834 1135.065 1043.09 1122.286 1042.917 C 1114.152 1042.807 1104.094 1041.319 1099.933 1039.612 C 1089.261 1035.234 1089.218 1035.05 1096.417 1024.659 C 1102.488 1015.9 1103.579 1015.519 1113.598 1018.678 C 1133.594 1024.985 1162.017 1010.409 1170.433 989.53 C 1173.675 981.49 1175.958 979.999 1185.036 979.999 Z M 1354.949 754.526 C 1358.577 754.637 1360.576 759.673 1363.915 771.706 C 1369.295 791.094 1367.801 799.836 1357.602 808.655 C 1349.782 815.416 1348.355 818.716 1349.152 828.174 C 1350.039 838.685 1348.965 840.344 1335.18 849.815 C 1326.969 855.456 1316.953 860.073 1312.922 860.073 C 1306.698 860.073 1305.592 858.524 1305.598 849.815 C 1305.605 841.219 1307.454 838.538 1317.02 833.248 C 1332.901 824.466 1342.446 808.811 1342.446 791.545 C 1342.446 783.877 1341.125 775.074 1339.516 771.983 C 1337.191 767.517 1338.529 764.888 1346.024 759.194 C 1350.011 756.164 1352.774 754.459 1354.949 754.526 Z M 1382.552 380.319 L 1391.696 387.265 C 1398.815 392.673 1400.321 395.646 1398.511 400.702 C 1397.234 404.273 1396.192 416.183 1396.192 427.167 C 1396.192 446.092 1396.764 447.661 1407.152 457.147 C 1413.182 462.653 1420.316 468.58 1423.005 470.315 C 1428.717 474.003 1427.035 493.983 1421.011 493.983 C 1419 493.983 1410.964 489.816 1403.152 484.726 C 1386.364 473.784 1382.584 467.517 1384.594 453.933 C 1385.771 445.977 1384.333 442.064 1377.734 435.284 C 1370.401 427.749 1369.609 425.025 1371.219 412.948 C 1372.228 405.384 1375.188 394.948 1377.802 389.757 Z M 748.656 1061.917 C 757.556 1062.007 765.275 1064.773 770.055 1070.073 C 775.763 1076.401 779.829 1077.939 789.348 1077.362 C 795.982 1076.96 803.366 1078.298 805.754 1080.335 C 810.531 1084.408 827.74 1115.58 826.024 1117.049 C 822.36 1120.186 801.914 1121.137 801.914 1118.17 C 801.914 1111.259 785.487 1092.832 775.504 1088.545 C 763.449 1083.369 747.23 1082.868 735.828 1087.323 C 728.963 1090.005 726.79 1089.389 721.91 1083.377 C 713.926 1073.542 714.396 1071.856 726.574 1066.627 C 734.099 1063.397 741.734 1061.846 748.656 1061.917 Z M 1119.125 1081.964 C 1121.667 1081.992 1124.916 1082.761 1129.864 1084.042 C 1137.499 1086.017 1147.833 1089.805 1152.828 1092.46 L 1161.911 1097.284 L 1153.633 1106.167 C 1145.926 1114.433 1144.79 1114.741 1137.176 1110.659 C 1122.854 1102.981 1102.375 1105.021 1088.258 1115.53 C 1081.391 1120.641 1074.871 1127.744 1073.77 1131.311 C 1071.656 1138.153 1059.131 1140.202 1051.161 1135.01 C 1045.849 1131.551 1052.453 1117.527 1065.899 1103.71 C 1073.912 1095.474 1076.775 1094.421 1087.254 1095.866 C 1097.503 1097.278 1100.626 1096.227 1107.667 1088.991 C 1112.608 1083.915 1114.888 1081.915 1119.125 1081.964 Z M 1333.348 478.046 C 1337.521 478.08 1349.099 485.171 1358.88 493.995 C 1368.68 502.838 1369.863 505.527 1369.344 517.772 C 1368.892 528.429 1370.396 533.367 1375.938 539.429 C 1381.948 546.003 1382.765 549.235 1380.949 559.292 C 1379.057 569.782 1368.521 591.819 1365.399 591.819 C 1364.786 591.819 1360.521 588.49 1355.922 584.425 C 1347.874 577.31 1347.751 576.752 1352.68 569.522 C 1359.255 559.875 1359.379 533.995 1352.902 522.729 C 1350.208 518.043 1343.238 510.852 1337.411 506.749 C 1328.047 500.156 1327.052 498.155 1328.848 489.534 C 1329.964 484.169 1331.4 479.195 1332.04 478.479 C 1332.307 478.181 1332.751 478.042 1333.348 478.046 Z M 1453.009 705.026 L 1456.078 713.323 C 1460.499 725.269 1460.162 726.353 1449.59 734.088 C 1431.928 747.012 1426.072 776.703 1437.415 795.819 L 1443.293 805.733 L 1434.524 814.366 L 1425.75 823.002 L 1419.368 812.346 C 1415.858 806.484 1411.402 796.343 1409.465 789.811 C 1406.338 779.264 1406.656 777.148 1412.317 770.877 C 1419.984 762.385 1421.218 757.149 1418.259 745.635 C 1415.42 734.59 1424.115 721.713 1440.996 711.963 Z M 563.152 708.354 C 565.696 708.197 568.713 709.95 572.75 713.264 C 581.236 720.232 581.395 720.835 576.59 727.885 C 569.876 737.734 570.073 763.369 576.953 775.381 C 579.909 780.542 586.93 787.695 592.559 791.276 C 600.446 796.294 602.392 799.32 601.047 804.471 C 600.087 808.147 599.281 812.93 599.258 815.1 C 599.19 821.493 591.754 819.663 578.949 810.104 C 561.797 797.299 559.507 793.498 560.078 778.776 C 560.455 769.075 558.811 763.698 553.797 758.213 C 545.718 749.376 545.499 745.823 551.84 726.702 C 555.989 714.189 558.913 708.616 563.152 708.354 Z M 501.484 476.624 L 508.629 485.808 C 512.558 490.858 517.413 501.008 519.418 508.366 C 522.767 520.657 522.505 522.317 516.238 528.757 C 510.599 534.551 509.724 538.063 511.187 549.034 C 512.71 560.446 511.736 563.819 504.219 573.116 C 499.411 579.062 491.29 586.426 486.172 589.479 L 476.863 595.03 L 473.308 583.956 C 469.94 573.468 470.256 572.447 479.312 564.616 C 498.325 548.177 503.159 524.542 491.914 502.983 L 485.957 491.565 L 493.719 484.097 Z M 866.668 160.71 C 868.249 160.756 870.157 161.036 872.555 161.476 C 878.467 162.561 883.761 163.846 884.321 164.335 C 886.48 166.223 877.482 180.489 867.082 191.671 C 857.037 202.473 855.201 203.234 843.246 201.55 C 832.668 200.06 829.097 200.955 823.781 206.417 C 815.611 214.813 801.618 214.976 784.258 206.878 C 777.079 203.53 771.203 199.549 771.203 198.031 C 771.203 196.513 774.516 192.07 778.567 188.16 C 785.565 181.403 786.4 181.297 795.309 186.031 C 814.953 196.47 846.203 187.672 856.684 168.749 C 860.112 162.561 861.927 160.575 866.668 160.71 Z M 830.688 1019.827 C 834.377 1019.988 837.013 1022.839 843.531 1030.253 C 860.22 1049.234 883.008 1052.792 906.199 1040.038 C 912.054 1036.818 914.14 1037.31 920.446 1043.397 C 924.509 1047.32 927.836 1051.44 927.836 1052.553 C 927.836 1056.169 905.089 1067.545 894.051 1069.448 C 885.871 1070.858 881.476 1069.739 875.66 1064.772 C 869.647 1059.635 865.335 1058.623 855.43 1060.018 C 840.507 1062.12 833.292 1057.83 819.973 1038.936 L 810.824 1025.956 L 821.844 1022.038 C 825.883 1020.601 828.474 1019.73 830.688 1019.827 Z M 1039.641 229.284 C 1045.899 229.432 1051.457 231.617 1057.036 235.855 C 1064.797 241.752 1067.561 242.301 1074.995 239.417 C 1085.889 235.193 1099.418 242.877 1108.93 258.691 C 1117.344 272.68 1116.911 274.618 1104.531 278.523 C 1095.161 281.478 1093.667 281.163 1092.04 275.894 C 1091.022 272.602 1085.389 266.142 1079.52 261.542 C 1065.875 250.847 1044.404 248.311 1027.817 255.433 C 1016.306 260.375 1015.625 260.313 1008.805 253.73 C 1000.229 245.451 1001.636 242.595 1018.047 234.937 C 1026.425 231.027 1033.383 229.137 1039.641 229.284 Z M 1440.208 533.432 L 1447.895 540.847 L 1455.583 548.257 L 1448.152 562.616 C 1444.066 570.514 1440.723 580.362 1440.723 584.499 C 1440.723 595.927 1448.133 611.324 1458.415 621.253 C 1466.774 629.325 1467.329 631.047 1464.261 639.397 C 1459.659 651.93 1454.536 651.03 1438.868 634.928 C 1425.78 621.479 1425.573 620.934 1427.422 604.897 C 1428.937 591.756 1428.225 587.338 1423.781 582.292 C 1418.956 576.812 1418.72 574.43 1421.922 563.448 C 1423.938 556.534 1428.879 546.953 1432.899 542.155 Z M 1048.933 1032.198 C 1050.694 1032.268 1053.457 1033.46 1058.261 1035.815 C 1064.228 1038.738 1069.109 1042.011 1069.109 1043.085 C 1069.109 1046.616 1049.329 1064.73 1040.18 1069.577 C 1034.016 1072.842 1029.517 1073.395 1025.792 1071.346 C 1017.578 1066.828 1002.771 1067.779 998.473 1073.1 C 993.546 1079.201 990.357 1078.995 975.438 1071.624 C 951.212 1059.655 947.553 1053.423 959.879 1045.124 C 966.898 1040.398 968.162 1040.565 980.61 1047.877 C 997.84 1058 1014.111 1058.019 1030.855 1047.936 C 1037.984 1043.642 1044.629 1037.963 1045.618 1035.315 C 1046.414 1033.182 1047.172 1032.128 1048.933 1032.198 Z M 937.856 220.706 C 945.387 220.802 962.678 227.929 972.305 235.71 C 978.767 240.934 979.576 243.021 976.575 246.738 C 969.109 255.982 961.474 258.134 955.582 252.656 C 939.754 237.935 908.258 240.405 892.203 257.624 C 882.963 267.535 880.694 268.081 870.25 262.906 C 861.464 258.551 861.575 256.771 871.383 244.792 C 883.338 230.192 895.585 224.562 906.707 228.546 C 916.279 231.975 930.372 228.566 934.414 221.843 C 934.899 221.038 936.118 220.684 937.856 220.706 Z M 954.985 148.3 C 957.897 148.445 960.589 150.791 966.453 156.081 C 972.302 161.358 980.599 166.58 984.891 167.687 C 997.586 170.961 1019.952 166.967 1029.489 159.722 C 1037.926 153.312 1038.755 153.238 1046.199 158.249 C 1057.385 165.781 1054.636 171.795 1035 182.765 L 1017.786 192.382 L 1004.707 186.324 C 992.434 180.636 991.093 180.581 982.84 185.449 C 974.284 190.495 973.656 190.363 959.641 180.566 C 951.719 175.029 943.287 167.4 940.903 163.609 C 936.871 157.2 937.242 156.357 946.192 151.601 C 950.32 149.407 952.72 148.188 954.985 148.3 Z M 475.824 642.311 C 479.31 642.311 499.617 664.785 503.933 673.421 C 506.623 678.801 506.724 681.817 504.297 684.311 C 499.623 689.113 500.101 706.2 505.105 713.233 C 510.707 721.105 505.95 736.793 493.473 751.608 L 484.047 762.799 L 477.015 753.006 L 469.98 743.214 L 477.379 733.003 C 491.877 712.988 490.341 689.462 473.312 670.729 C 464.577 661.12 464.391 660.327 468.828 651.511 C 471.373 646.452 474.521 642.311 475.824 642.311 Z M 1367.723 613.491 L 1375.02 620.534 C 1379.034 624.408 1385.128 633.554 1388.567 640.854 C 1394.562 653.579 1394.604 654.517 1389.52 663.62 C 1384.803 672.063 1384.68 674.564 1388.418 686.206 C 1392.474 698.834 1392.306 699.758 1383.656 712.292 C 1378.725 719.438 1371.673 727.321 1367.984 729.807 C 1361.728 734.025 1360.944 733.663 1356.301 724.436 C 1351.426 714.748 1351.51 714.326 1360.551 703.745 C 1376.235 685.388 1376.786 660.451 1361.906 642.28 L 1354.25 632.928 L 1360.989 623.21 Z M 912.715 1107.19 C 915.682 1107.387 918.82 1108.609 923.633 1110.956 C 933.245 1115.642 936.49 1115.861 946.438 1112.487 C 956.876 1108.947 959.135 1109.25 968.992 1115.51 C 981.149 1123.231 993.059 1137.184 990.758 1141.01 C 989.94 1142.371 985.233 1144.931 980.301 1146.698 C 972.774 1149.394 970.432 1148.886 965.715 1143.53 C 950.591 1126.357 918.56 1123.344 900.114 1137.358 C 891.504 1143.899 890.593 1143.991 883.317 1139.092 C 879.085 1136.243 875.625 1132.783 875.625 1131.401 C 875.625 1127.432 892.29 1114.064 902.832 1109.577 C 906.953 1107.823 909.748 1106.993 912.715 1107.19 Z M 569.016 567.346 C 569.821 567.319 570.525 567.481 571.101 567.846 C 572.678 568.848 574.865 573.337 575.961 577.823 C 577.503 584.138 575.88 588.404 568.773 596.721 C 553.698 614.366 552.615 639.051 566.144 656.725 C 572.156 664.578 572.258 665.661 567.711 673.362 C 560.772 685.114 557.804 685.049 548.836 672.967 C 536.398 656.211 533.222 644.001 539.07 635.421 C 544.85 626.941 545.326 616.114 540.285 607.819 C 537.246 602.819 538.016 599.671 544.887 589.003 C 552.685 576.893 563.377 567.536 569.016 567.346 Z M 915.551 187.859 C 923.461 187.859 933.977 198.664 933.977 206.792 C 933.977 210.264 931.215 215.946 927.836 219.417 C 924.458 222.889 918.929 225.73 915.551 225.73 C 912.173 225.73 906.644 222.889 903.266 219.417 C 899.888 215.946 897.121 210.264 897.121 206.792 C 897.121 198.664 907.641 187.859 915.551 187.859 Z M 1069.109 197.324 C 1077.557 197.324 1087.536 208.336 1087.536 217.66 C 1087.536 225.95 1077.461 235.195 1068.426 235.195 C 1065.423 235.195 1060.203 232.358 1056.824 228.886 C 1053.446 225.415 1050.68 219.733 1050.68 216.261 C 1050.68 208.133 1061.199 197.324 1069.109 197.324 Z M 860.27 1062.053 C 863.648 1062.053 869.177 1064.894 872.555 1068.366 C 875.933 1071.837 878.696 1077.519 878.696 1080.991 C 878.696 1084.462 875.933 1090.14 872.555 1093.612 C 869.177 1097.084 863.648 1099.924 860.27 1099.924 C 856.891 1099.924 851.363 1097.084 847.985 1093.612 C 844.606 1090.14 841.84 1084.462 841.84 1080.991 C 841.84 1077.519 844.606 1071.837 847.985 1068.366 C 851.363 1064.894 856.891 1062.053 860.27 1062.053 Z M 1271.808 307.784 C 1275.187 307.784 1280.712 310.621 1284.089 314.093 C 1287.469 317.564 1290.234 323.246 1290.234 326.718 C 1290.234 330.189 1287.469 335.871 1284.089 339.343 C 1280.712 342.814 1275.187 345.655 1271.808 345.655 C 1268.431 345.655 1262.901 342.814 1259.524 339.343 C 1256.146 335.871 1253.38 330.189 1253.38 326.718 C 1253.38 318.59 1263.899 307.784 1271.808 307.784 Z M 657.57 951.596 C 660.949 951.596 666.477 954.433 669.856 957.905 C 673.234 961.376 675.996 967.058 675.996 970.53 C 675.996 974.001 673.234 979.683 669.856 983.155 C 666.477 986.626 660.949 989.467 657.57 989.467 C 654.192 989.467 648.663 986.626 645.285 983.155 C 641.907 979.683 639.145 974.001 639.145 970.53 C 639.145 967.058 641.907 961.376 645.285 957.905 C 648.663 954.433 654.192 951.596 657.57 951.596 Z M 839.223 203.921 C 842.689 204.11 846.352 205.657 850.371 208.55 C 862.17 217.043 857.685 235.224 842.66 239.808 C 837.657 241.334 833.708 239.749 828.07 233.956 C 818.738 224.367 818.339 218.319 826.485 209.949 C 830.174 206.157 833.849 204.154 837.75 203.925 C 838.238 203.897 838.728 203.894 839.223 203.921 Z M 531.824 525.913 C 541.252 525.458 550.078 533.046 550.078 545.128 C 550.078 553.871 546.189 558.294 535.543 561.647 C 530.496 563.237 526.64 561.706 520.953 555.862 C 511.621 546.273 511.222 540.224 519.367 531.854 C 523.129 527.989 527.539 526.12 531.824 525.913 Z M 1397.433 734.991 C 1400.918 735.064 1404.193 737.041 1408.422 741.385 C 1417.755 750.975 1418.157 757.023 1410.011 765.393 C 1402.347 773.27 1391.053 773.51 1384.384 765.936 C 1374.949 755.224 1379.733 739.836 1393.837 735.534 C 1395.087 735.152 1396.272 734.967 1397.433 734.991 Z M 786.559 1038.909 C 797.258 1038.909 804.988 1046.223 804.988 1056.346 C 804.988 1063.963 794.215 1074.678 786.559 1074.678 C 783.18 1074.678 777.652 1071.837 774.274 1068.366 C 762.339 1056.102 769.509 1038.909 786.559 1038.909 Z M 1013.828 1073.624 C 1024.527 1073.624 1032.254 1080.938 1032.254 1091.061 C 1032.254 1098.678 1021.484 1109.393 1013.828 1109.393 C 1010.45 1109.393 1004.922 1106.552 1001.543 1103.081 C 989.608 1090.816 996.779 1073.624 1013.828 1073.624 Z M 1089.125 1058.108 C 1098.141 1058.108 1109.036 1068.228 1109.036 1076.604 C 1109.036 1082.82 1097.775 1093.612 1091.29 1093.612 C 1088.286 1093.612 1082.758 1091.404 1079.004 1088.702 C 1066.005 1079.345 1073.031 1058.108 1089.125 1058.108 Z M 520.058 602.495 C 523.386 602.427 526.84 603.525 530.266 605.831 C 539.411 611.989 540.384 626.299 532.176 633.932 C 525.795 639.866 520.211 640.387 512.496 635.768 C 502.849 629.993 499.956 620.655 505.246 612.358 C 509.325 605.96 514.513 602.608 520.058 602.495 Z M 1163.047 1028.885 C 1163.655 1028.857 1164.259 1028.865 1164.855 1028.905 C 1172.818 1029.437 1179.672 1035.934 1179.672 1046.17 C 1179.672 1060.328 1164.104 1069.99 1152.993 1062.729 C 1150.987 1061.418 1147.884 1056.399 1146.098 1051.573 C 1143.284 1043.967 1143.879 1041.739 1150.563 1034.87 C 1154.359 1030.969 1158.796 1029.082 1163.047 1028.885 Z M 1142.208 223.374 C 1151.427 223.425 1161.246 231.124 1161.246 239.402 C 1161.246 254.083 1147.334 262.926 1134.305 256.531 C 1120.345 249.679 1123.036 227.781 1138.321 223.839 C 1139.583 223.514 1140.89 223.366 1142.208 223.374 Z M 1391.583 506.608 C 1401.711 506.608 1410.011 513.815 1410.011 522.612 C 1410.011 530.549 1399.4 541.323 1391.583 541.323 C 1388.203 541.323 1382.676 538.482 1379.297 535.011 C 1367.577 522.967 1374.654 506.608 1391.583 506.608 Z M 593.402 383.526 C 602.29 383.526 611.504 393.162 611.504 402.46 C 611.504 411.207 602.412 421.397 594.609 421.397 C 592.827 421.397 588.297 419.185 584.543 416.483 C 572.338 407.699 578.837 383.526 593.402 383.526 Z M 1406.683 582.35 C 1415.649 582.35 1425.368 590.732 1425.368 598.464 C 1425.368 614.403 1403.949 623.054 1393.594 611.296 C 1382.941 599.199 1390.561 582.35 1406.683 582.35 Z M 991.965 187.902 C 1001.54 187.577 1010.758 194.384 1010.758 204.953 C 1010.758 221.221 987.733 228.834 978.684 215.558 C 972.39 206.324 972.645 199.475 979.52 193.081 C 983.187 189.671 987.613 188.049 991.965 187.902 Z M 718.512 1002.065 C 723.884 1001.967 729.243 1004.12 732.641 1009.104 C 738.959 1018.374 738.67 1022.899 731.277 1030.495 C 723.612 1038.371 712.319 1038.608 705.648 1031.034 C 702.853 1027.86 700.566 1022.28 700.566 1018.635 C 700.566 1008.646 709.558 1002.229 718.512 1002.065 Z M 1363.462 433.995 C 1368.833 433.897 1374.193 436.05 1377.59 441.034 C 1383.909 450.304 1383.619 454.829 1376.227 462.425 C 1368.562 470.301 1357.269 470.538 1350.598 462.964 C 1347.802 459.79 1345.516 454.21 1345.516 450.565 C 1345.516 440.576 1354.506 434.159 1363.462 433.995 Z M 1372.672 809.553 C 1378.045 809.455 1383.404 811.608 1386.802 816.592 C 1393.12 825.862 1392.833 830.383 1385.442 837.979 C 1377.776 845.855 1366.484 846.096 1359.813 838.522 C 1357.017 835.347 1354.73 829.768 1354.73 826.123 C 1354.73 816.134 1363.719 809.717 1372.672 809.553 Z M 1333.949 876.3 C 1336.176 876.194 1338.407 877.216 1342.031 879.296 C 1353.161 885.684 1354.776 901.653 1345.005 908.686 C 1336.282 914.964 1333.274 914.983 1324.699 908.811 C 1314.911 901.766 1315.53 887.044 1325.906 880.057 C 1329.504 877.636 1331.724 876.405 1333.949 876.3 Z M 1212.083 260.964 L 1212.083 260.965 C 1220.834 261.311 1228.808 268.119 1228.808 278.613 C 1228.808 294.596 1205.797 301.435 1196.739 288.144 C 1190.42 278.874 1190.706 274.354 1198.098 266.758 C 1201.697 263.059 1206.046 261.24 1210.324 260.984 C 1210.912 260.948 1211.499 260.941 1212.083 260.964 Z M 1285.786 939.018 C 1291.66 938.906 1297.615 941.298 1300.808 945.983 C 1307.128 955.253 1306.842 959.778 1299.449 967.374 C 1292.071 974.956 1284.75 975.384 1275.563 968.772 C 1267.602 963.042 1266.635 951.046 1273.563 943.928 C 1276.697 940.708 1281.217 939.106 1285.786 939.018 Z M 1228.243 989.612 C 1233.807 989.426 1239.243 991.763 1242.458 996.479 C 1248.776 1005.749 1248.485 1010.274 1241.094 1017.87 C 1233.428 1025.746 1222.135 1025.983 1215.464 1018.409 C 1208.797 1010.837 1209.016 1001.185 1216 994.69 C 1219.508 991.429 1223.914 989.756 1228.243 989.612 Z M 566.152 829.151 C 575.085 829.228 583.863 835.553 583.863 846.136 C 583.863 863.534 560.566 869.819 551.101 854.975 C 546.388 847.583 546.31 845.853 550.359 838.405 C 553.857 831.971 560.04 829.099 566.152 829.151 Z M 935.442 1075.089 C 941.984 1074.802 948.639 1078.156 952.125 1084.569 C 956.174 1092.017 956.097 1093.747 951.383 1101.139 C 945.065 1111.048 931.328 1112.278 923.703 1103.62 C 916.957 1095.96 917.274 1086.376 924.492 1079.663 C 927.631 1076.744 931.516 1075.261 935.442 1075.089 Z M 522.707 680.827 C 531.685 681.252 540.863 687.697 540.863 697.229 C 540.863 712.752 519.374 720.801 509.094 709.128 C 502.75 701.924 502.672 696.178 508.793 687.198 C 512.006 682.484 517.32 680.571 522.707 680.827 Z M 641.457 324.503 C 645.297 324.428 649.324 325.558 652.984 328.023 C 669.87 339.392 656.096 365.323 637.039 358.042 C 627.227 354.294 622.383 343.441 626.437 334.296 C 629.186 328.098 635.058 324.629 641.457 324.503 Z M 605.914 895.014 C 614.831 894.812 623.785 901.15 623.785 912.147 C 623.785 929.379 600.6 936.266 591.363 921.78 C 587.13 915.141 587.016 912.82 590.547 905.214 C 593.731 898.353 599.813 895.153 605.914 895.014 Z M 557.875 453.503 C 566.63 453.82 574.648 460.523 574.648 470.862 C 574.648 486.422 551.353 493.538 542.574 480.659 C 536.256 471.389 536.545 466.865 543.937 459.268 C 547.505 455.602 551.84 453.791 556.117 453.526 C 556.705 453.489 557.291 453.482 557.875 453.503 Z M 766.305 232.089 C 774.556 232.151 778.592 235.007 783.246 244.085 C 790.619 258.465 773.521 273.226 758.41 265.527 C 743.982 258.175 750.169 231.968 766.305 232.089 Z M 701.25 273.741 C 710.189 273.774 718.992 279.978 718.992 290.425 C 718.992 307.403 695.427 313.953 686.231 299.53 C 681.517 292.138 681.439 290.408 685.488 282.96 C 688.955 276.585 695.134 273.719 701.25 273.741 Z M 1324.165 367.745 C 1337.135 367.745 1344.465 379.888 1338.828 392.034 C 1333.875 402.706 1318.474 405.78 1310.583 397.671 C 1299.375 386.154 1307.729 367.745 1324.165 367.745 Z M 1410.219 658.093 C 1422.089 658.093 1430.644 681.383 1421.527 688.878 C 1413.968 695.093 1405.171 695.92 1398.399 691.046 C 1385.031 681.425 1393.401 658.093 1410.219 658.093 Z M 535.957 756.155 C 543.345 756.247 551.809 761.666 554.422 769.299 C 558.122 780.11 549.916 790.643 537.793 790.643 C 533.249 790.643 526.994 787.757 523.891 784.233 C 517.436 776.904 520.071 763.831 529.187 757.952 C 531.154 756.683 533.494 756.124 535.957 756.155 Z M 1255.508 702.815 C 1255.63 703.124 1255.761 703.45 1255.879 703.749 C 1255.921 704.029 1255.977 704.308 1256.016 704.588 C 1255.764 703.928 1255.6 703.531 1255.391 702.995 C 1255.433 702.933 1255.465 702.877 1255.508 702.815 Z M 660.641 562.401 C 660.643 562.439 660.655 562.476 660.657 562.514 C 660.685 563.179 660.671 563.761 660.641 564.315 Z M 767.473 559.94 C 767.579 559.968 767.643 559.981 767.742 560.007 C 767.63 560.016 767.518 560.024 767.406 560.034 C 767.429 560.001 767.45 559.973 767.473 559.94 Z" fill-rule="evenodd" fill="rgb(115,41,79)" stroke-width="1.0666666782572287" stroke="rgba(0,0,0,0)" stroke-linejoin="miter" stroke-linecap="butt" transform="matrix(1, 0, 0, 1, 0, 0)"/>
</svg>